# xmcd
#
# Track frame offsets:
#	150
#	33815
#	56731
#	78184
#	100318
#	106584
#	125372
#	143052
#	166308
#
# Disc length: 2606 seconds
#
# Revision: 1
# Processed by: cddbd v1.5.2PL0 Copyright (c) Steve Scherf et al.
# Submitted via: audiograbber 1.83.01
#
DISCID=660a2c09
DTITLE=Eagles - Hotel California
DYEAR=1984
DGENRE=
TTITLE0=Hotel California
TTITLE1=New Kid in Town
TTITLE2=Life in the Fast Lane
TTITLE3=Wasted Time
TTITLE4=Wasted Time (reprise)
TTITLE5=Victom of Love
TTITLE6=Pretty Maids All in a Row
TTITLE7=Try and Love Again
TTITLE8=The Last Resort
EXTD=
EXTT0=
EXTT1=
EXTT2=
EXTT3=
EXTT4=
EXTT5=
EXTT6=
EXTT7=
EXTT8=
PLAYORDER=
